<svg width="24" height="24" viewBox="0 0 24 24" fill="none" xmlns="http://www.w3.org/2000/svg">
    <path d="m8.467 12.883-.647-.763.647.763zm.053-.051-.713-.702v.001l.713.7zM6.298 14.72l-.646-.763.646.763zm-.119.125.821.571-.82-.57zm11.514-1.886-.693.722.692-.722zm-1.852-1.777-.692.722.692-.722zm-.687-.005-.682-.73-.003.002.685.728zM11.725 14.4l.683.73.002-.002-.685-.728zm-.698-.015-.716.698.002.001.714-.7zm-.009-.01-.716.698.716-.698zm-.049-.047.655-.756-.655.756zM9.3 12.88l.655-.756-.655.756zm-.05-.048.718-.697h-.001l-.716.697zm-.008-.009.716-.698-.001-.001-.715.7zm-.712-.002-.71-.703-.002.002.712.701zM16.32 6.6v-1a1 1 0 0 0-1 1h1zm.344 0h1a1 1 0 0 0-1-1v1zm0 .29v1a1 1 0 0 0 1-1h-1zm-.343 0h-1a1 1 0 0 0 1 1v-1zM1.4 6v12h2V6h-2zM6 22.6h12v-2H6v2zM22.6 18V6h-2v12h2zM18 1.4H6v2h12v-2zM22.6 6A4.6 4.6 0 0 0 18 1.4v2A2.6 2.6 0 0 1 20.6 6h2zM18 22.6a4.6 4.6 0 0 0 4.6-4.6h-2a2.6 2.6 0 0 1-2.6 2.6v2zM1.4 18A4.6 4.6 0 0 0 6 22.6v-2A2.6 2.6 0 0 1 3.4 18h-2zm2-12A2.6 2.6 0 0 1 6 3.4v-2A4.6 4.6 0 0 0 1.4 6h2zm5.713 7.645c.06-.05.108-.1.12-.112L7.806 12.13l-.008.009c-.002.002-.002.002-.001 0l.023-.02 1.293 1.525zm-2.169 1.838 2.17-1.838L7.82 12.12l-2.168 1.837 1.292 1.526zM7 15.416a.474.474 0 0 1-.048.06l-.008.007-1.292-1.526a1.66 1.66 0 0 0-.294.317L7 15.417zm0 0-1.642-1.142A2 2 0 0 0 5 15.417h2zM7 17.5v-2.084H5V17.5h2zm-.5-.5a.5.5 0 0 1 .5.5H5A1.5 1.5 0 0 0 6.5 19v-2zm11 0h-11v2h11v-2zm-.5.5a.5.5 0 0 1 .5-.5v2a1.5 1.5 0 0 0 1.5-1.5h-2zm0-3.82v3.82h2v-3.82h-2zm0 0h2a2 2 0 0 0-.615-1.442L17 13.68zm-1.851-1.776L17 13.68l1.385-1.443-1.851-1.777-1.385 1.443zm.687.004a.5.5 0 0 1-.687-.004l1.385-1.443a1.5 1.5 0 0 0-2.062-.015l1.364 1.462zm-3.426 3.22 3.429-3.222-1.37-1.457-3.429 3.222 1.37 1.458zm-2.097-.044a1.5 1.5 0 0 0 2.095.047l-1.365-1.462a.5.5 0 0 1 .699.016l-1.43 1.4zm-.01-.01.008.009 1.432-1.396-.009-.01-1.432 1.396zm.011.01a.494.494 0 0 1-.021-.02c-.001-.001-.001-.001 0 0l.009.009 1.433-1.395c-.01-.011-.056-.059-.111-.106l-1.31 1.512zm-1.67-1.447 1.67 1.447 1.31-1.512-1.67-1.447-1.31 1.512zm-.111-.107c.01.012.056.06.111.107l1.31-1.512.022.02h-.001l-.008-.009-1.434 1.394zm-.008-.008.009.01 1.432-1.397-.009-.009-1.432 1.396zm.715.003a.5.5 0 0 1-.714-.002l1.43-1.398a1.5 1.5 0 0 0-2.138-.006l1.422 1.406zm-.008.009.01-.01-1.425-1.403-.01.01 1.425 1.403zM16.32 7.6h.343v-2h-.343v2zm-.657-1v.29h2V6.6h-2zm1-.71h-.343v2h.343v-2zm.657 1V6.6h-2v.29h2z" fill="#000"/>
</svg>
